<svg id="Layer_1" data-name="Layer 1" xmlns="http://www.w3.org/2000/svg" width="220" height="100" viewBox="0 0 220 100"><defs><style>.cls-1{fill:#99551d;}.cls-2{fill:#efa154;}.cls-3{fill:#85877c;}</style></defs><title>Artboard 1</title><path class="cls-1" d="M45.32,91.23a.23.23,0,0,1-.17-.11L45,90.84l-.67-.93c-.28-.39-.4-.5-.68-.48l-1,0c-.11,0-.15.06-.15.19v4.74c0,.94.09,1,.82,1,.23,0,.29,0,.29.09v.14s-.13,0-.23,0H40.13c-.12,0-.25,0-.25,0v-.13c0-.06.06-.08.28-.09.7-.09.79-.23.79-.74V89.86q0-.42-.28-.42h-.59c-.59,0-.78.08-.88.23l-1,1.52a.2.2,0,0,1-.12.08.16.16,0,0,1-.14-.17c0-.12.06-.26.14-1s.19-1,.46-1c.67,0,.88.06,1.24.06l1.7,0c1,0,2.17-.12,3.44-.12.19,0,.23.08.28.34l.09.62a4.59,4.59,0,0,0,.14.74.52.52,0,0,1,0,.25C45.46,91.17,45.42,91.23,45.32,91.23Z"/><path class="cls-1" d="M53.6,95.69H50.22s-.06,0-.06-.11,0-.11,0-.11h.28c.43,0,.65-.28.65-.85V91.18a1.24,1.24,0,0,0-1.35-1.33c-.64,0-1.24.36-1.24.84V95a.39.39,0,0,0,.36.39l.39.06s0,.06,0,.09,0,.11-.09.11H46.18c-.06,0-.08,0-.08-.12s0-.11.06-.11h.29c.45,0,.68-.28.68-.85V86.05c0-.23-.22-.36-.65-.36h-.21c-.15,0-.23,0-.23-.13s.15-.2.45-.19l1.64,0,1.39,0c.17,0,.25,0,.25.14s0,.13-.11.13l-.76.06c-.29,0-.37,0-.37.73v3.35a2.94,2.94,0,0,1,1.55-.39,3.6,3.6,0,0,1,1.58.42l.53-.39a.5.5,0,0,1,.3-.12c.09,0,.14.06.14.2l0,.61v4.49c0,.3,0,.85.7.85h.3s.08,0,.08.11S53.66,95.69,53.6,95.69Z"/><path class="cls-1" d="M57.75,95.82a3.31,3.31,0,1,1,3.5-3.32A3.28,3.28,0,0,1,57.75,95.82Zm0-6.31c-.93,0-1.72.88-1.72,3s.79,3,1.72,3,1.72-.88,1.72-3S58.68,89.51,57.75,89.51Z"/><path class="cls-1" d="M73.6,95.69H70.25s-.08,0-.08-.11,0-.11.06-.11h.27c.42,0,.63-.28.63-.85v-2c0-2-.2-2.66-1.14-2.66a1.74,1.74,0,0,0-1.52,1.69V95a.39.39,0,0,0,.37.43l.5,0s.06.09.06.14-.06.08-.2.08H66s0,0,0-.11,0-.11.06-.11h.27c.31,0,.7-.09.7-.85V92.27c0-1.35-.44-2.6-1.43-2.6a1.45,1.45,0,0,0-1.24,1.5v3.47c0,.45,0,.81.6.81h.26s.08,0,.08.12,0,.12-.06.12H62c-.09,0-.14,0-.14-.08a.1.1,0,0,1,.08-.11l.48-.08a.45.45,0,0,0,.41-.48V89.4c0-.19,0-.25.15-.25s.09,0,.17.12l.51.5,1.1-.32a2.53,2.53,0,0,1,.65-.08,3,3,0,0,1,2.68,1.44,2.83,2.83,0,0,1,2.73-1.46c1.16,0,1.8.81,1.8,2.4v2.85c0,.3,0,.85.7.85h.29s.08,0,.08.11S73.66,95.69,73.6,95.69Z"/><path class="cls-1" d="M81.11,95.77a1.38,1.38,0,0,1-1.36-1.07,2.54,2.54,0,0,1-2,1.14,3.28,3.28,0,0,1-3.53-3.3,3.52,3.52,0,0,1,7,.39v1.43c0,.43,0,.73.39.73.5,0,.62-.65.74-.65s.12.11.12.17A1.36,1.36,0,0,1,81.11,95.77Zm-1.53-3.45c0-1.69-.51-2.77-1.89-2.77-.93,0-1.75.88-1.75,3s.82,3,1.75,3A1.92,1.92,0,0,0,79.58,94Z"/><path class="cls-1" d="M85.78,95.94a4.31,4.31,0,0,1-1-.14l-.51-.12c-.49-.12-.57-.14-.61-.36l-.25-1.59c0-.09,0-.16,0-.17l.2-.06s.06,0,.14.14l.65,1a1.68,1.68,0,0,0,1.49.93c.48,0,1.35-.09,1.35-1.08,0-.62-.2-.7-1.64-1.27-2-.79-2.14-1.16-2.14-2.08s1.39-2,3-2c.54,0,1.36.09,1.36.45a1.79,1.79,0,0,1-.09.33l-.15.43c-.09.31-.17.42-.36.42-.37,0-.71-.94-1.72-.94a.9.9,0,0,0-1,.87c0,.42.48.67,1.41,1,1.9.61,2.4.95,2.4,2.19C88.4,95.3,87.31,95.94,85.78,95.94Z"/><path class="cls-1" d="M96.93,89.43h-.19c-.43,0-.65.11-.65.33V97c0,.42.11.81.11,1s0,.2-.14.22a.52.52,0,0,1-.23-.06l-.82-.4a2.87,2.87,0,0,1-2.17,1c-1.5,0-2-.68-2-1.19a.66.66,0,0,1,.62-.65c.54,0,.7.37.9.73a1,1,0,0,0,.94.63c.42,0,1.27-.28,1.27-1.67v-6.4c0-.42,0-.73-.23-.78l-.5-.06c-.32,0-.5-.08-.5-.12s.08-.19.23-.19l1.46.06,1.75-.06c.29,0,.43.06.43.2S97.1,89.43,96.93,89.43Z"/><path class="cls-1" d="M98.44,96a1,1,0,1,1,1-1A1,1,0,0,1,98.44,96Z"/><path class="cls-1" d="M108.64,95.8a9.8,9.8,0,0,1-1.25-.17c-.06,0-.09.06-.09.19v1.81c0,.17,0,.34.64.34h.2c.17,0,.26,0,.26.12s-.15.22-.45.2l-1.75,0-1.46,0c-.14,0-.22-.06-.22-.17s.15-.08.48-.12l.5-.06c.17,0,.24,0,.24-.78V89.76c0-.23-.23-.36-.7-.36h-.19c-.17,0-.25,0-.25-.13s.12-.15.39-.15h3.14c2.8,0,4.09,1.56,4.09,3.22A3.39,3.39,0,0,1,108.64,95.8Zm-.55-6.4h-.67c-.09,0-.13.12-.13.26v4.56c0,.85.37,1.28,1.37,1.28s1.76-1.1,1.76-3.11S109.82,89.4,108.09,89.4Z"/><path class="cls-1" d="M116.78,95.69h-3.35s-.08,0-.08-.11,0-.11.09-.12l.54-.08c.25,0,.34-.19.34-.43V90.49c0-.57-.25-.85-.74-.85h-.25s-.06,0-.06-.11,0-.14,0-.14h3.25s.08,0,.08.11,0,.12-.06.12l-.47.08c-.25,0-.31.19-.31.47v4.45c0,.37,0,.85.71.85h.23s.08,0,.08.11S116.83,95.69,116.78,95.69Zm-1.88-9a1,1,0,1,1,1-1A1,1,0,0,1,114.91,86.67Z"/><path class="cls-1" d="M121.44,95.92a3.28,3.28,0,0,1-3.36-3.41,3.48,3.48,0,0,1,3.8-3.41c.76,0,1,.14,1,.4a.88.88,0,0,1-.06.26l-.11.39c-.06.23-.19.34-.33.34s-.68-.67-1.47-.67-1.36.8-1.36,2.37c0,1.35.81,3.13,2.62,3.13a1.9,1.9,0,0,0,1.56-.73c.06-.06.11-.11.16-.11s.06,0,.06.08C124,94.82,123.25,95.92,121.44,95.92Z"/><path class="cls-1" d="M128.18,95.92a3.28,3.28,0,0,1-3.36-3.41,3.48,3.48,0,0,1,3.8-3.41c.76,0,1,.14,1,.4a.85.85,0,0,1-.06.26l-.11.39c-.06.23-.19.34-.33.34s-.68-.67-1.47-.67-1.37.8-1.37,2.37c0,1.35.81,3.13,2.62,3.13a1.9,1.9,0,0,0,1.56-.73c.06-.06.11-.11.15-.11s.06,0,.06.08C130.71,94.82,130,95.92,128.18,95.92Z"/><path class="cls-1" d="M135.06,95.82a3.31,3.31,0,1,1,3.5-3.32A3.28,3.28,0,0,1,135.06,95.82Zm0-6.31c-.93,0-1.72.88-1.72,3s.79,3,1.72,3,1.72-.88,1.72-3S136,89.51,135.06,89.51Z"/><path class="cls-1" d="M142.95,95.74l-1.64,0-1.46,0c-.15,0-.23,0-.23-.16s.17-.11.33-.12l.68-.06c.11,0,.23,0,.23-.77V86.05c0-.23-.22-.36-.67-.36H140c-.16,0-.23,0-.23-.13s.17-.17.5-.17h1.58c.29,0,.43.27.43.81v8.88c0,.26.23.34.67.34h.19c.19,0,.28,0,.28.12S143.24,95.74,142.95,95.74Z"/><path class="cls-1" d="M148,95.82a3.31,3.31,0,1,1,3.5-3.32A3.28,3.28,0,0,1,148,95.82Zm0-6.31c-.93,0-1.72.88-1.72,3s.79,3,1.72,3,1.72-.88,1.72-3S148.88,89.51,148,89.51Z"/><path class="cls-1" d="M153.38,97.94h-.23c-.06,0-.08,0-.08-.08a.26.26,0,0,1,.11-.19,1.43,1.43,0,0,0,.7-1.35c0-.61-.9-.4-.9-1.21a.91.91,0,0,1,.88-.84,1.31,1.31,0,0,1,1.4,1.3C155.25,96.54,154.52,97.3,153.38,97.94Z"/><path class="cls-1" d="M164.56,95.83a3.78,3.78,0,0,1-1.89-.62c-.08-.06-.14,0-.15.09l-.09.51a.13.13,0,0,1-.11.09l-1.75-.19c-.37,0-.56,0-.56-.15s0-.16.09-.16l.62,0c.26,0,.4-.23.44-.68l.08-1.47V90c0-.39-.15-.59-.47-.59h-.34c-.14,0-.2,0-.2-.14s0-.12.08-.12H162c.42,0,1.21-.08,2.22-.08,1.57,0,3.62,1.12,3.62,3.22A3.27,3.27,0,0,1,164.56,95.83Zm-.74-6.45c-.71,0-1,.14-1,.42v1.87c0,.77-.08,2.45-.14,3.12a3.22,3.22,0,0,0,1.75.6c1,0,1.61-1,1.61-3C166,90.81,165.32,89.39,163.82,89.39Z"/><path class="cls-1" d="M173.81,95.83a3.77,3.77,0,0,1-1.89-.62c-.08-.06-.14,0-.15.09l-.09.51a.13.13,0,0,1-.11.09l-1.75-.19c-.37,0-.56,0-.56-.15s0-.16.09-.16l.62,0c.26,0,.4-.23.43-.68l.08-1.47V90c0-.39-.15-.59-.46-.59h-.34c-.14,0-.2,0-.2-.14s0-.12.08-.12h1.71c.42,0,1.21-.08,2.21-.08,1.56,0,3.63,1.12,3.63,3.22A3.27,3.27,0,0,1,173.81,95.83Zm-.75-6.45c-.71,0-1,.14-1,.42v1.87c0,.77-.08,2.45-.14,3.12a3.2,3.2,0,0,0,1.75.6c1,0,1.61-1,1.61-3C175.25,90.81,174.57,89.39,173.07,89.39Z"/><path class="cls-1" d="M181,95.83c-1.43,0-2.57-.67-2.57-1.44,0-.34.17-.64.47-.64s.54.17.74.62a1.61,1.61,0,0,0,1.6,1.12,1.17,1.17,0,0,0,1.15-1.07c0-.25,0-.59-1.24-1.18-1.67-.76-2.43-1.16-2.43-2.4a2,2,0,0,1,2.32-1.91,4.13,4.13,0,0,1,1.92.45c.06,0,.06.15.08.27l.19,1.3c0,.14,0,.22-.14.22a.37.37,0,0,1-.28-.18l-.33-.74a1.49,1.49,0,0,0-1.38-1c-.39,0-1.18.22-1.18.93,0,.54.4.77,1.11,1.13l1.16.57c.79.39,1.39.8,1.39,1.83C183.62,95,182.5,95.83,181,95.83Z"/><path class="cls-1" d="M192.69,90.35c-.79,0-.67-.76-1.55-.76-.36,0-.57.37-.57,1.39v1.1c0,.12,0,.16.14.16H191c.71,0,1,0,1.18-.9,0-.25.09-.34.2-.34s.09,0,.09.11l0,.45v2.11c0,.14,0,.17-.12.17a.14.14,0,0,1-.14-.15c0-1.26-.61-1.1-1.35-1.1h-.19c-.08,0-.09,0-.09.31v1.5c0,1,.31,1,1,1,.23,0,.29,0,.29.09l0,.12s-.12,0-.25,0h-3.25c-.2,0-.31-.06-.31-.19s0-.11.11-.11c.54,0,.85,0,.85-.57V92.25a3.15,3.15,0,0,1,3.1-3.24c.75,0,1.18.37,1.18.79S193.09,90.35,192.69,90.35Z"/><path class="cls-1" d="M196,95.5c.06,0,.09,0,.09.08s-.06.14-.19.16-1.1-.09-1.35-.09-.88.08-1,.08-.26,0-.26-.11.15-.13.43-.14.62-.17.87-.77L196.49,90s0-.13-.17-.22l-.36-.15c-.14-.06-.26-.12-.26-.2s0-.09.08-.09l1.8-.28a1.8,1.8,0,0,1,.28-.06c.08,0,.11.12.11.34a1.47,1.47,0,0,0,.08.48l2.12,5a.8.8,0,0,0,.7.56c.26,0,.31,0,.31.16s0,.12-.12.12l-1.32,0-2,.06c-.12,0-.17,0-.17-.12s0-.08.23-.11l.45-.09c.32-.06.39-.2.29-.42l-.45-1c-.17-.39-.22-.48-.56-.48h-1.5a1.08,1.08,0,0,0-.49.08s-.06,0-.19.34l-.37.92c-.2.5.39.71.73.71Zm-.11-2.94a1.12,1.12,0,0,0-.11.39c0,.11.19.17.59.17h1c.2,0,.31,0,.31-.14a.2.2,0,0,0,0-.08l-.93-2.39Z"/><path class="cls-1" d="M208.7,94.16l0,1.67a2.92,2.92,0,0,1-2.84,3.24c-.74,0-1.18-.37-1.18-.79s.2-.54.61-.54c.79,0,.67.76,1.55.76.35,0,.57-.37.57-1.4V96c0-.34-.16-.51-.37-.51a3.57,3.57,0,0,1-1.78.37,3.27,3.27,0,0,1-3.16-3.36A3.55,3.55,0,0,1,205.77,89a13.31,13.31,0,0,1,2.14.36c.08,0,.08,0,.15,0s.14.12.17.25l.22,1.29.15.7s-.08.08-.14.08-.09,0-.11,0l-.34-.88a2.13,2.13,0,0,0-1.91-1.36c-1.44,0-2.12,1.74-2.12,3.24,0,1.78.76,2.79,1.86,2.79a3,3,0,0,0,1.39-.37V93.83c0-.17-.15-.25-.46-.25h-.42c-.2,0-.25,0-.25-.16s.17-.12.48-.15l.85-.09,1.07-.23a.18.18,0,0,1,.25.17Z"/><path class="cls-1" d="M214.72,95.83a3.78,3.78,0,0,1-1.89-.62c-.08-.06-.14,0-.15.09l-.09.51a.13.13,0,0,1-.11.09l-1.75-.19c-.37,0-.56,0-.56-.15s0-.16.09-.16l.62,0c.26,0,.4-.23.44-.68l.08-1.47V90c0-.39-.15-.59-.47-.59h-.34c-.14,0-.2,0-.2-.14s0-.12.08-.12h1.7c.42,0,1.21-.08,2.22-.08,1.57,0,3.63,1.12,3.63,3.22A3.27,3.27,0,0,1,214.72,95.83ZM214,89.39c-.71,0-1,.14-1,.42v1.87c0,.77-.08,2.45-.14,3.12a3.22,3.22,0,0,0,1.75.6c1,0,1.61-1,1.61-3C216.16,90.81,215.47,89.39,214,89.39Z"/><path class="cls-2" d="M64.69,45.1a16.42,16.42,0,0,0,11.24,1.56,26.63,26.63,0,0,0,15.19-9.57c1.9-2.54,2.63-5.1,1.94-7.33-1-5-9.52-8.83-17-7.89-.83,0-3.31.23-2.93.88A22.27,22.27,0,0,0,55.92,35.12,38.88,38.88,0,0,0,52.24,44a60.85,60.85,0,0,1-6.33,15.35,23.37,23.37,0,0,1-1.12,2.9c-4.57,6.08-8.67,12-14.62,16.52a40.88,40.88,0,0,1-6.81,4.08c-.1.39-.73.61-1.44,1C20,85.19,8.46,87.23,7.1,86.48a52.14,52.14,0,0,0,11-2.59C23.48,82,28.24,78.8,28,78.77c-.23.72-13.5,6.48-15,6.11,13-4.08,19-10.57,22.13-14,3.06-3.63,3.59-4.79,3.07-4.12-.93,1.36-7.52,9.27-14.74,13.1a46.36,46.36,0,0,1-10.14,4.18c2.86-.8,7.93-3.91,9.06-4.63,5.32-3.33,4.3-3.15,9.88-7.4,4.68-3.58,9.69-12.28,11.44-16.8-.6,2.47-2.64,8.32-5.29,11.16C43.73,60,42.76,58.06,46,50.31a11.07,11.07,0,0,0,.74-2.6l1-2.79c1.79-6.73,3.65-14,9.36-19.26-.45.48-1,.55-1.5,1-4.88,4.69-6.45,10.77-8.11,16.93-.43,1.13-.43,2.87-.78,4.11-.72,2.48-2.06,4.43-3.06,6.59,1.64-4.61,3.18-9.57,4.62-15.08.24-1.18.51-2.64.68-3.6a62.57,62.57,0,0,0-2.43,7.51C45,51.22,41,61.7,36.27,65.61c-.1.15-.2.3-.39.6l-.28.21A11.33,11.33,0,0,1,32.85,69a18,18,0,0,0,2.24-2.23C39.8,60,44.54,51.81,46.38,42.85a71.4,71.4,0,0,1,2.77-7.79,27.44,27.44,0,0,1,14-15.45c11.08-5.21,26.31-4.44,33.39,6.47,3.16,6.05-.55,12.3-4.43,15.86a27.63,27.63,0,0,1-14.06,7.63,6.81,6.81,0,0,1-1.39.36l.65.1-1.38,0a15,15,0,0,1-7.74-.64c-1-.45,1.82.36,2.63.12a7,7,0,0,1-1.11-.21s.13-.12.25-.26a1.64,1.64,0,0,1-.93-.37,20.68,20.68,0,0,0,15.61-3.61,9.08,9.08,0,0,0-2.82,1.26A15.73,15.73,0,0,1,77,48.2c-4.45,1.06-9.25-.28-12.95-2.36a8,8,0,0,1-1.61-1.35C61.81,43.78,63.32,44.35,64.69,45.1ZM70,18.86a27.33,27.33,0,0,1,5.33-.35l1.88,0c.78,0,1.59,0,2.47,0a24.32,24.32,0,0,1,9.38,2.94,19.17,19.17,0,0,0-10.4-3.46,20.5,20.5,0,0,1,14.22,5.49A9.82,9.82,0,0,1,94.44,36a23.7,23.7,0,0,1-5.34,6.52,34.69,34.69,0,0,1-4.64,3.85c5.22-3.13,10.82-7.55,12.16-13.93,1.21-6.91-5.71-12.5-12.13-14.09C71.26,14.14,54.34,21.58,49.05,36,53.11,27.3,60.9,20.62,70,18.86Zm-3,1.5a26.33,26.33,0,0,0-8.92,5.83C50.58,32.89,48.92,43.94,48,49.51c2-7.57,3.22-16.87,10.07-23.33-5.4,6.92-2.68.45,7.52-5.19C65.85,20.86,66.37,20.63,67,20.36Z"/><path class="cls-2" d="M89.72,44.55a27.6,27.6,0,0,1-10.29,4.73,15.48,15.48,0,0,0,4.45-.67c4.44-1.68,8.61-5.19,11.81-9.25a13.09,13.09,0,0,0,2.83-11.57c-1.28-4.37-4.79-7.51-8.46-9.37a29.94,29.94,0,0,0-24.28-.56,16.06,16.06,0,0,0-3.66,1.82c9.53-5,20.85-5.06,29.61.31,4.33,2.57,7.77,8.19,6.38,13.39C96.9,38.4,93.33,41.84,89.72,44.55Z"/><path class="cls-2" d="M46.05,41c-.65,2.54-1.19,5-2,7.35A53.19,53.19,0,0,0,46.7,41a37.21,37.21,0,0,1,4.68-11.33A33.45,33.45,0,0,0,46.05,41Z"/><path class="cls-2" d="M62.13,19.68c-.77.38-1.48.88-2.23,1.32a28.68,28.68,0,0,0-8.52,8.69A31.29,31.29,0,0,1,61,21.07C60.83,20.82,61.33,20.22,62.13,19.68Z"/><path class="cls-3" d="M51,7.18c.24.19.36.24.29.5.19.32.83-.27.83-.48s0-.22,0-.24c-.16-.57-.64-.56-.81-.33-.11,0-.32,0,.33.24-.41,0-1,.57-.45.73.17,0-.31.63,0,.63s.3.75.76.71c.07-.09.16-.4.2-.34.55.6.75-.62.5-1,0-.11-.18-.3-.11-.3l-.28-.18c.08.11.61.07,1.17-.05.24,0,0,1.06.13,1.32.16.07.53-.85.49-.94,1.13,2.79-1.48,3.86-.79,3.69a2.57,2.57,0,0,0,1.46-2.33c.22-.21,0-.73,0-1.19.31.28.94,1.37.79,1.6-.12,1.05.24,1.3-.83,2C52,13.28,50,12.64,50.95,12.76c.75-.29,1.72-1.43,2.26-1.52-1.22-.28-1.5,1.54-3.28.94L49.37,12,49,11.52c-1.06-.78-2.33-1.74-2.38-3.27,0,.12-.27.27-.28.42-.23,1.52,1.15,2.3,2.08,3.2.19.24.76,0,1,.18a15.8,15.8,0,0,0,1.31,1c-1.25.27-2.41-.75-3.36-1.49a2.82,2.82,0,0,0-.91-.31,3.91,3.91,0,0,0,1.27,1.41c2.07,1.52,4.82.19,6.2.59l.14-.14.1,0a2.93,2.93,0,0,1,1-.1,2.12,2.12,0,0,1-.76.23c-1.78,1.69-4.83.95-6.87-.45-.63-.18-.77-1.29-1.19-1.64a4.39,4.39,0,0,1-1.06-4.6c2-6.41,9.75-4.26,8.76-1l.09.1.12-.17-.08.22c.12.19.27.42-.13.74-.22.15,0-.14-.26-.09l-.08.1-.26.1c.06,0-.1.08-.21.12-.11-.17-.21-.41-.42-.49-.19.34-.12.3-.14.36.14-.09.2-.05.11.08.21.07-.48.48-.7.41l-.36,0C51.41,7,50.93,7.09,51,7.18ZM47.35,5.65a2,2,0,0,1,.94-.54l.23-.19.2-.31A2.39,2.39,0,0,1,50.2,4.2a1.71,1.71,0,0,0-2,.25c1.16-1.64,3.55-.65,4.11.34a1.74,1.74,0,0,0,.6.43l.41.2c-.15-1.21-2.22-2.9-4.7-1.88-2.46.85-4,4.77-2.06,7.69A5.55,5.55,0,0,1,47.35,5.65Zm.28.63A2.3,2.3,0,0,0,47.57,8c0,1.63,1.59,3.15,2.79,2.67A3.51,3.51,0,0,1,47.57,8c.28,1.43-.11.34,0-1.46Z"/><path class="cls-3" d="M53.74,3.55A3.42,3.42,0,0,1,54,5.43a2.67,2.67,0,0,0,.47-1.19c0-1-.75-1.52-1.54-2.07-2.23-2.06-7.21-.42-8,3.69a1.66,1.66,0,0,0-.14.94C45.77,1.46,52.26.42,53.74,3.55Z"/><path class="cls-3" d="M46.52,13.18c.71.43,1.43.78,2.07,1.18a10.91,10.91,0,0,0-1.68-1.66,9.1,9.1,0,0,1-1.83-2.4A6.16,6.16,0,0,0,46.52,13.18Z"/><path class="cls-3" d="M44.73,6.8l-.1.6a6.7,6.7,0,0,0,.44,2.9,10.64,10.64,0,0,1,.2-3.1A.49.49,0,0,1,44.73,6.8Z"/><path class="cls-3" d="M46.22,28.88A8.73,8.73,0,0,0,43,28.61c-1.82.06-3.47-.75-5.43-1a21.4,21.4,0,0,0-2.81-.25,25.82,25.82,0,0,0-6.18-.78c-.24-.06-.92-.24-.86.42a16.94,16.94,0,0,0-6.2-.51c-.85.08-1.75-.46-2.61-.37-1.39.24-2.77-.42-4.13-.32-.2.1-.6.46-.76.43-1.89-.64-3.61.45-5.37.91a8.21,8.21,0,0,1-1.9.28c-.05.3-.21.26-.4.36a10.74,10.74,0,0,1-3.61-1c-.14-.19,5.54-.47,5.44-.8s-3.69.12-4,0c13.26-3.65,6.89-2.53,2.86-1.23-.64,0-1.52.47-2.75.54C5,25,6.47,24,6.81,23.9,8.42,23.38,8.16,23,10,23c1.51,0,4.09-.91,5.39-1.14-.66.53-2.21,1.69-3.21,1.58,2.17.56,2.42-1.44,4.67-1.31a2.24,2.24,0,0,0,.71-.18l.79.2c1.84,0,3.46-.47,5.28-.3-.16,0-.26-.31-.42-.36-1.57-.56-2.9.16-4.56,0-.32-.08-.75.42-1.08.43a6.27,6.27,0,0,1-1.93-.44A16.42,16.42,0,0,1,19.76,21a2.62,2.62,0,0,0,.84-.57H18.69c-2.23.19-5.11,1.71-6.73.87l-.19.1-.1-.07a1.68,1.68,0,0,1-1-.21l.86,0c2.22-1.09,4.8-.59,7.23-1,.53-.17,1.44.37,2,.21a10.3,10.3,0,0,1,4.85.2,120.21,120.21,0,0,1,17.09,4.7l.39,0-.16-.2.36.2a4,4,0,0,1,2.07.54c.26.25-.49,0-.72.23l.31.1-.08.29c.12-.06.18.12.26.23l-4.62-.12c.18.39.63.34.85.4a3.48,3.48,0,0,1,1.5,0c1.31,0,2.64.73,3.57,1a2.35,2.35,0,0,1-1.77-.61c.15.34-.45-.09-.07.56C44.69,28.42,46.17,29,46.22,28.88ZM27.15,22.5l1.31.68.47.09a1.2,1.2,0,0,0,.61,0l2.5.74a6.66,6.66,0,0,0-2.76-1.24c2.71.11,5.06,1.54,7.55,2.47l2.3.34a10.7,10.7,0,0,0,1.62-.06C34.09,23.75,27.42,21,20.53,20.61,22.77,21.32,24.91,21.75,27.15,22.5Zm-.8.41a22.53,22.53,0,0,0-2.64-.06c-2.37-.12-4.95-.19-6.47.81a44.08,44.08,0,0,1,6.47-.81c-2.12-.09-.59.05,2.25.1A1,1,0,0,1,26.35,22.91Z"/><path class="cls-3" d="M39.39,23.7l2.94,1.46a9.21,9.21,0,0,0-1.12-1.24C40,23.1,38.7,23,37.45,22.53a35.5,35.5,0,0,0-11.17-2.42,1.68,1.68,0,0,0-.91,0A64.07,64.07,0,0,1,39.39,23.7Z"/><path class="cls-3" d="M19.18,19.33a10.45,10.45,0,0,1-2.07.23,5.2,5.2,0,0,0,2.11.39L22,19.82A12.06,12.06,0,0,0,19.18,19.33Z"/><path class="cls-3" d="M25.36,20.12l-.59-.1A14.88,14.88,0,0,0,22,19.82l2.95.87A.55.55,0,0,1,25.36,20.12Z"/><path class="cls-3" d="M66.15,79H61.56c-.17,0-.23,0-.23-.2s0-.19.15-.23l.81-.09c.46-.05.63-.39.63-.93V69.42c0-1.16-.43-1.56-1.28-1.56h-.47c-.1,0-.18-.08-.18-.22a.18.18,0,0,1,.14-.2h4.73c.18,0,.24.05.24.2s-.06.22-.12.22l-.85.15c-.45.09-.58.34-.58.88V77c0,1.17.38,1.56,1.23,1.56h.48c.08,0,.11.07.11.2S66.34,79,66.15,79Z"/><path class="cls-3" d="M87.9,79.39c-3.31,0-5.59-2.41-5.59-5.95,0-2.72,1.48-6.53,6.5-6.53.91,0,1.25.18,1.25.71a1.78,1.78,0,0,1-.08.49l-.23.67c-.14.46-.32.63-.6.63s-.28-.08-.66-.48a2.26,2.26,0,0,0-1.59-.68c-1.15,0-2.88.68-2.88,4.3,0,3.31,2.07,5.81,4.75,5.81A3.59,3.59,0,0,0,91.7,77a.37.37,0,0,1,.29-.2c.07,0,.1.08.1.11S91.16,79.39,87.9,79.39Z"/><path class="cls-3" d="M113.62,79.39c-3.32,0-5.58-2.41-5.58-5.95,0-2.72,1.47-6.53,6.49-6.53.92,0,1.25.18,1.25.71a1.87,1.87,0,0,1-.08.49l-.23.67c-.14.46-.32.63-.59.63s-.29-.08-.66-.48a2.25,2.25,0,0,0-1.58-.68c-1.16,0-2.89.68-2.89,4.3,0,3.31,2.06,5.81,4.75,5.81A3.59,3.59,0,0,0,117.42,77a.38.38,0,0,1,.29-.2.13.13,0,0,1,.11.11C117.82,77.07,116.88,79.39,113.62,79.39Z"/><path class="cls-3" d="M139.79,79.25a5.77,5.77,0,0,1-6-6,5.93,5.93,0,0,1,6.12-6.07,5.87,5.87,0,0,1,5.78,6.1A5.78,5.78,0,0,1,139.79,79.25Zm.11-11.62c-2.55,0-4.19,2.13-4.19,5.48s1.6,5.72,4.08,5.72,3.88-2.07,3.88-5.19C143.67,69.67,142.39,67.63,139.9,67.63Z"/><path class="cls-3" d="M166.64,79.05,164,78.94l-2.09.11c-.23,0-.34-.11-.34-.29s.06-.16.17-.23l1.35-.11c.51-.05.63-.16.63-1.41V61.34c0-.52-.35-.66-1.13-.66h-.35c-.28,0-.42-.09-.42-.22s.22-.31.68-.31h2.27c.46,0,.59.31.59,1.48V77.86c0,.52.35.63,1.14.63h.34c.29,0,.45.11.45.22S167.09,79.05,166.64,79.05Z"/><path class="cls-3" d="M189.3,79.25a5.77,5.77,0,0,1-6-6,5.93,5.93,0,0,1,6.12-6.07,5.87,5.87,0,0,1,5.79,6.1A5.78,5.78,0,0,1,189.3,79.25Zm.11-11.62c-2.55,0-4.2,2.13-4.2,5.48s1.62,5.72,4.09,5.72,3.89-2.07,3.89-5.19C193.19,69.67,191.9,67.63,189.41,67.63Z"/></svg>